<?xml version="1.0" encoding="utf-8"?>
<!-- Generator: Adobe Illustrator 26.0.2, SVG Export Plug-In . SVG Version: 6.00 Build 0)  -->
<svg version="1.1" id="Layer_1" xmlns="http://www.w3.org/2000/svg" xmlns:xlink="http://www.w3.org/1999/xlink" x="0px" y="0px"
	 viewBox="0 0 1920 1080" style="enable-background:new 0 0 1920 1080;" xml:space="preserve">
<style type="text/css">
	.st0{fill-rule:evenodd;clip-rule:evenodd;}
</style>
<path id="path2518" class="st0" d="M959.9,240c-26.7,65.5-42.8,108.3-72.5,171.8c18.2,19.3,40.6,41.8,76.9,67.2
	c-39.1-16.1-65.7-32.2-85.6-49C840.7,509.5,781,622.6,660.1,840c95.1-54.9,168.8-88.7,237.5-101.7c-2.9-12.7-4.6-26.4-4.5-40.7
	l0.1-3c1.5-60.9,33.2-107.8,70.7-104.6c37.5,3.2,66.7,55.2,65.2,116.1c-0.3,11.5-1.6,22.5-3.8,32.7c67.9,13.3,140.9,47,234.7,101.2
	c-18.5-34.1-35-64.7-50.8-94c-24.8-19.2-50.7-44.3-103.6-71.4c36.3,9.4,62.3,20.3,82.6,32.5C1027.9,408.7,1014.9,369,959.9,240z"/>
</svg>
